<svg width="19" height="16" viewBox="0 0 19 16" fill="none" xmlns="http://www.w3.org/2000/svg">
<path d="M18.6411 1.79343C17.9554 2.09747 17.2179 2.30311 16.4444 2.39495C17.2341 1.92178 17.8402 1.17309 18.1263 0.279511C17.3873 0.717886 16.5684 1.0359 15.6977 1.20732C15 0.464331 14.0061 0 12.9054 0C10.7937 0 9.08097 1.71272 9.08097 3.82445C9.08097 4.12421 9.11491 4.41599 9.1805 4.69607C6.00207 4.53663 3.18386 3.01415 1.29744 0.699633C0.968305 1.26436 0.779493 1.92178 0.779493 2.62255C0.779493 3.94909 1.45517 5.12018 2.4808 5.80584C1.85418 5.78616 1.26407 5.61418 0.74869 5.32696C0.748405 5.34322 0.748404 5.35948 0.748404 5.37545C0.748404 7.22849 2.06724 8.77408 3.81646 9.12518C3.49588 9.21302 3.15733 9.25951 2.80908 9.25951C2.56209 9.25951 2.32279 9.23584 2.08949 9.19134C2.57606 10.7104 3.98816 11.8162 5.66209 11.8473C4.35295 12.8732 2.70412 13.4844 0.911832 13.4844C0.6038 13.4844 0.29862 13.4664 0 13.4308C1.69161 14.5163 3.70238 15.1492 5.86203 15.1492C12.8966 15.1492 16.7436 9.32169 16.7436 4.26739C16.7436 4.10168 16.7398 3.93654 16.7324 3.77283C17.4803 3.23377 18.1286 2.56038 18.6411 1.79343Z" fill="#F1F2F2"/>
</svg>
