<svg width="16" height="16" viewBox="0 0 16 16" fill="none" xmlns="http://www.w3.org/2000/svg">
<path d="M12.6 0H3.00001C1.33333 0 0 1.33333 0 3.00001V12.6C0 14.2667 1.33333 15.6 3.00001 15.6H12.6C14.2667 15.6 15.6 14.2667 15.6 12.6V3C15.6 1.33333 14.2667 0 12.6 0ZM13.4667 1.8H13.8V4.46666H11.1333V1.8H13.4667ZM5.60002 6.20001C6.06668 5.53333 6.93335 5.06666 7.80002 5.06666C8.66669 5.06666 9.53336 5.53333 10 6.20001C10.3333 6.66667 10.5333 7.2 10.5333 7.80001C10.5333 9.33333 9.26668 10.5333 7.80002 10.5333C6.33334 10.5333 5.06669 9.33334 5.06669 7.80001C5.06668 7.2 5.26668 6.66667 5.60002 6.20001ZM14.0667 12.6C14.0667 13.4 13.4 14.0667 12.6 14.0667H3.00001C2.20001 14.0667 1.53333 13.4 1.53333 12.6V6.20001H3.86667C3.66666 6.66667 3.53334 7.26667 3.53334 7.80001C3.53334 10.1333 5.46667 12.0667 7.80001 12.0667C10.1333 12.0667 12.0667 10.1333 12.0667 7.80001C12.0667 7.26667 11.9333 6.66666 11.7333 6.20001H14.0667L14.0667 12.6Z" fill="white"/>
</svg>
