<svg width="2380" height="1256" viewBox="0 0 2380 1256" fill="none" xmlns="http://www.w3.org/2000/svg">
<path d="M0.575078 1157.37C-3.37042 1134.1 10.0507 792.33 134.391 509.349C246.005 255.691 505.556 111.123 809.334 293.435C1134.82 488.829 1415.57 508.478 1641.95 451.48C1865.37 394.97 2013.95 224.699 2080.67 116.124C2225.49 -118.507 2439.42 26.624 2364.28 335.332C2328.82 478.935 2235.35 519.085 2073.38 533.985C1904.08 549.56 1653.95 516.499 1307.01 583.875C972.417 649.107 595.892 805.77 384.167 1005.18C158.84 1217.59 33.6085 1360.42 0.575078 1157.37Z" fill="url(#paint0_linear_14005_314)"/>
<defs>
<linearGradient id="paint0_linear_14005_314" x1="2256.17" y1="972.745" x2="51.841" y2="289.465" gradientUnits="userSpaceOnUse">
<stop stop-color="#5D50C6"/>
<stop offset="1" stop-color="#F85E9F"/>
</linearGradient>
</defs>
</svg>
