<svg width="17" height="25" viewBox="0 0 17 25" fill="none" xmlns="http://www.w3.org/2000/svg">
<path d="M16.9558 8.47126C16.9558 3.79336 13.1624 0 8.48449 0C3.80658 0 0.0132349 3.79336 0.0132349 8.47126C0.0132349 8.47126 -0.369511 11.4141 2.98157 16.1941C4.487 18.3459 8.48449 24.7334 8.48449 24.7334C8.48449 24.7334 12.482 18.3459 13.9874 16.1941C17.3385 11.4141 16.9558 8.47126 16.9558 8.47126ZM8.48449 14.7992C5.07387 14.7992 2.30967 12.035 2.30967 8.62436C2.30967 5.21374 5.07387 2.44952 8.48449 2.44952C11.8951 2.44952 14.6593 5.21374 14.6593 8.62436C14.6593 12.035 11.8951 14.7992 8.48449 14.7992Z" fill="#FF5722"/>
</svg>
