<svg width="27" height="27" viewBox="0 0 27 27" fill="none" xmlns="http://www.w3.org/2000/svg">
<path d="M25.9139 0.775989C25.2469 0.0914824 24.2599 -0.163531 23.3395 0.104896L1.87733 6.34604C0.906267 6.61583 0.217987 7.39027 0.032574 8.37408C-0.156839 9.37535 0.504774 10.6464 1.36912 11.1779L8.07987 15.3024C8.76815 15.7252 9.65651 15.6192 10.2261 15.0447L17.9105 7.31242C18.2973 6.90976 18.9376 6.90976 19.3245 7.31242C19.7113 7.70166 19.7113 8.33248 19.3245 8.73514L11.6267 16.4688C11.0557 17.0419 10.9491 17.9344 11.3692 18.6269L15.4696 25.4051C15.9497 26.2103 16.7768 26.6667 17.6837 26.6667C17.7905 26.6667 17.9105 26.6667 18.0173 26.6532C19.0577 26.5191 19.8847 25.8077 20.1915 24.8011L26.5541 3.3664C26.8343 2.45372 26.5808 1.46051 25.9139 0.775989Z" fill="white"/>
</svg>
