<svg width="27" height="26" viewBox="0 0 27 26" fill="none" xmlns="http://www.w3.org/2000/svg">
<path fill-rule="evenodd" clip-rule="evenodd" d="M10 13.4049C13.6728 13.4049 16.6168 10.4228 16.6168 6.70242C16.6168 2.98214 13.6728 -3.05176e-05 10 -3.05176e-05C6.32724 -3.05176e-05 3.38316 2.98214 3.38316 6.70242C3.38316 10.4228 6.32724 13.4049 10 13.4049ZM10 16.6869C4.60563 16.6869 0 17.5494 0 20.9952C0 24.4397 4.5776 25.3333 10 25.3333C15.3931 25.3333 20 24.4708 20 21.0249C20 17.5792 15.4224 16.6869 10 16.6869ZM23.8639 9.45045H25.468C26.1283 9.45045 26.6667 9.99638 26.6667 10.666C26.6667 11.3354 26.1283 11.8814 25.468 11.8814H23.8639V13.4512C23.8639 14.1208 23.3269 14.6666 22.6653 14.6666C22.0051 14.6666 21.4667 14.1208 21.4667 13.4512V11.8814H19.8653C19.2036 11.8814 18.6667 11.3354 18.6667 10.666C18.6667 9.99638 19.2036 9.45045 19.8653 9.45045H21.4667V7.88213C21.4667 7.21257 22.0051 6.66664 22.6653 6.66664C23.3269 6.66664 23.8639 7.21257 23.8639 7.88213V9.45045Z" fill="white"/>
</svg>
