<svg width="1440" height="1256" viewBox="0 0 1440 1256" fill="none" xmlns="http://www.w3.org/2000/svg">
<path d="M-815.599 1157.37C-819.544 1134.1 -806.123 792.33 -681.783 509.349C-570.169 255.691 -310.617 111.123 -6.83928 293.435C318.647 488.829 599.4 508.478 825.781 451.48C1049.2 394.97 1197.77 224.699 1264.5 116.124C1409.32 -118.507 1623.24 26.624 1548.1 335.332C1512.65 478.935 1419.18 519.085 1257.21 533.985C1087.91 549.56 837.774 516.499 490.835 583.875C156.244 649.107 -220.281 805.77 -432.007 1005.18C-657.334 1217.59 -782.565 1360.42 -815.599 1157.37Z" fill="url(#paint0_linear_14005_314)"/>
<defs>
<linearGradient id="paint0_linear_14005_314" x1="1440" y1="972.745" x2="-764.333" y2="289.465" gradientUnits="userSpaceOnUse">
<stop stop-color="#5D50C6"/>
<stop offset="1" stop-color="#F85E9F"/>
</linearGradient>
</defs>
</svg>
